<svg width="140" height="112" viewBox="0 0 140 112" fill="none" xmlns="http://www.w3.org/2000/svg">
<path d="M113.135 23.9879V37.7295C113.135 38.8673 112.216 39.7907 111.084 39.7907H95.0225C93.8904 39.7907 92.9717 38.8673 92.9717 37.7295V23.9879C92.9717 22.8473 93.8904 21.9266 95.0225 21.9266H111.084C112.216 21.9266 113.135 22.8473 113.135 23.9879Z" fill="#555760"/>
<path d="M9.78962 21.9252H2.05078C0.918204 21.9252 0 22.8478 0 23.9864V37.728C0 38.8666 0.918204 39.7892 2.05078 39.7892H9.78962C10.9222 39.7892 11.8404 38.8666 11.8404 37.728V23.9864C11.8404 22.8481 10.9222 21.9252 9.78962 21.9252Z" fill="#555760"/>
<path d="M140 23.9878V37.7293C140 38.8671 139.081 39.7906 137.949 39.7906H130.211C129.079 39.7906 128.16 38.8671 128.16 37.7293V23.9878C128.16 22.8472 129.079 21.9265 130.211 21.9265H137.949C139.081 21.9265 140 22.8472 140 23.9878Z" fill="#555760"/>
<path d="M140 31.0591V37.7292C140 38.867 139.081 39.7905 137.949 39.7905H130.211C129.079 39.7905 128.16 38.867 128.16 37.7292V31.0591C128.16 32.1969 129.079 33.1203 130.211 33.1203H137.949C139.081 33.1203 140 32.1969 140 31.0591Z" fill="#2E384D"/>
<path d="M11.8399 31.0577V37.7279C11.8399 38.8657 10.9211 39.7891 9.78907 39.7891H2.05078C0.918751 39.7891 0 38.8657 0 37.7279V31.0577C0 32.1955 0.918751 33.119 2.05078 33.119H9.78907C10.9211 33.119 11.8399 32.1955 11.8399 31.0577Z" fill="#2E384D"/>
<path d="M113.135 33.121V37.7299C113.135 38.8677 112.216 39.7911 111.084 39.7911H95.0227C93.8907 39.7911 92.9719 38.8677 92.9719 37.7299V33.121H113.135Z" fill="#2E384D"/>
<path d="M18.6708 13.0499V48.6653C18.6708 50.1824 18.0583 51.5538 17.0685 52.5487C16.0814 53.5436 14.7142 54.1564 13.2048 54.1564C12.2095 54.1564 11.2771 53.8899 10.4731 53.4199C8.83799 52.4745 7.73877 50.6991 7.73877 48.6653V13.0499C7.73877 11.0161 8.83799 9.24069 10.4731 8.29527C11.2771 7.8253 12.2095 7.55872 13.2048 7.55872C16.2235 7.55872 18.6708 10.0157 18.6708 13.0499Z" fill="#3FB023"/>
<path d="M18.6708 13.0496V48.6651C18.6708 50.1821 18.0583 51.5536 17.0685 52.5484C16.0814 53.5433 14.7142 54.1562 13.2048 54.1562C12.2095 54.1562 11.2771 53.8896 10.4731 53.4197C10.8888 53.1806 11.2688 52.8865 11.6052 52.5484C12.5923 51.5536 13.2048 50.1821 13.2048 48.6651V13.0496C13.2048 11.0159 12.1056 9.24319 10.4731 8.29502C11.2771 7.82506 12.2095 7.55847 13.2048 7.55847C16.2235 7.55847 18.6708 10.0155 18.6708 13.0496Z" fill="#4CD62B"/>
<path d="M132.276 13.0489V48.6643C132.276 50.1814 131.663 51.5528 130.673 52.5477C129.686 53.5426 128.319 54.1555 126.81 54.1555C125.814 54.1555 124.882 53.8889 124.078 53.4189C122.443 52.4735 121.344 50.6981 121.344 48.6643V13.0489C121.344 11.0151 122.443 9.23971 124.078 8.29429C124.882 7.82433 125.814 7.55774 126.81 7.55774C129.829 7.55774 132.276 10.0147 132.276 13.0489Z" fill="#3FB023"/>
<path d="M132.276 13.0489V48.6643C132.276 50.1814 131.663 51.5528 130.673 52.5477C129.686 53.5426 128.319 54.1555 126.81 54.1555C125.814 54.1555 124.882 53.8889 124.078 53.4189C124.494 53.1798 124.874 52.8858 125.21 52.5477C126.197 51.5528 126.81 50.1814 126.81 48.6643V13.0489C126.81 11.0151 125.711 9.24246 124.078 8.29429C124.882 7.82433 125.814 7.55774 126.81 7.55774C129.829 7.55774 132.276 10.0147 132.276 13.0489Z" fill="#4DD82B"/>
<path d="M97.0729 23.8065V37.7295C97.0729 38.183 96.9225 38.6255 96.6463 38.9855L85.9221 52.9744L89.1104 86.5122C89.1651 87.0893 88.9737 87.6637 88.5854 88.0952C88.1971 88.5239 87.6475 88.7685 87.0678 88.7685H52.9318C52.3522 88.7685 51.8025 88.5239 51.4143 88.0952C51.026 87.6637 50.8346 87.0893 50.8893 86.5122L51.4717 80.3944L51.5756 79.2951L54.0447 53.2988L43.7389 45.3011C43.2357 44.9109 42.9404 44.309 42.9404 43.6714V15.8667C42.9404 14.7289 43.8592 13.8054 44.9912 13.8054H87.117C92.6049 13.8054 97.0729 18.2907 97.0729 23.8065Z" fill="#FFD3C0"/>
<path d="M97.0727 23.8065V37.7295C97.0727 38.183 96.9223 38.6255 96.6461 38.9855L85.9219 52.9744L89.1102 86.5122C89.1649 87.0893 88.9735 87.6637 88.5852 88.0952C88.1969 88.5239 87.6473 88.7685 87.0676 88.7685H52.9316C52.352 88.7685 51.8023 88.5239 51.4141 88.0952C51.0258 87.6637 50.8344 87.0893 50.8891 86.5122L51.4715 80.3944L51.5754 79.2951H79.6848C80.2645 79.2951 80.8141 79.0505 81.2024 78.6218C81.5907 78.1903 81.7821 77.6159 81.7274 77.0387L79.6328 52.8453L91.4508 37.2074C91.727 36.8473 91.8774 36.4048 91.8774 35.9486V22.0284C91.8774 18.6232 88.536 15.6111 85.941 13.8054H87.1168C92.6047 13.8054 97.0727 18.2907 97.0727 23.8065Z" fill="#FFB9A1"/>
<path d="M85.8316 23.9879V31.4083C85.8316 31.8068 85.7167 32.1998 85.498 32.5324L85.1152 33.1205L81.3937 38.8535C81.0164 39.4389 80.3683 39.7907 79.6765 39.7907H28.9155C27.7835 39.7907 26.8647 38.8673 26.8647 37.7295V23.9879C26.8647 23.4354 27.0835 22.9078 27.4745 22.5203C27.8628 22.1327 28.396 21.9184 28.9401 21.9266H83.8027C84.9265 21.9376 85.8316 22.8583 85.8316 23.9879Z" fill="#555760"/>
<path d="M26.8647 33.1205H85.1152L81.3937 38.8535C81.0164 39.4389 80.3683 39.7906 79.6765 39.7906H28.9155C27.7835 39.7906 26.8647 38.8672 26.8647 37.7294V33.1205Z" fill="#2E384D"/>
<path d="M30.9669 6.17871V55.5357C30.9669 58.9437 28.2107 61.714 24.82 61.714C23.7017 61.714 22.6517 61.4116 21.7466 60.8812C19.9091 59.8149 18.6704 57.8196 18.6704 55.5357V6.17871C18.6704 3.89485 19.9091 1.89958 21.7466 0.833228C22.6517 0.302803 23.7017 0.000488281 24.82 0.000488281C28.2107 0.000488281 30.9669 2.77079 30.9669 6.17871Z" fill="#4953B8"/>
<path d="M30.9669 6.17871V55.5357C30.9669 58.9437 28.2106 61.714 24.82 61.714C23.7017 61.714 22.6517 61.4116 21.7466 60.8812C23.5813 59.8149 24.82 57.8168 24.82 55.5357V6.17871C24.82 3.8976 23.5813 1.89958 21.7466 0.833228C22.6517 0.302803 23.7017 0.000488281 24.82 0.000488281C28.2106 0.000488281 30.9669 2.77079 30.9669 6.17871Z" fill="#5965E0"/>
<path d="M121.33 6.17822V55.5353C121.33 58.9432 118.574 61.7135 115.183 61.7135C114.065 61.7135 113.015 61.4112 112.11 60.8807C110.272 59.8144 109.033 57.8191 109.033 55.5353V6.17822C109.033 3.89437 110.272 1.89909 112.11 0.832741C113.015 0.302316 114.065 0 115.183 0C118.574 0 121.33 2.77031 121.33 6.17822Z" fill="#5297E8"/>
<path d="M121.33 6.17822V55.5353C121.33 58.9432 118.574 61.7135 115.183 61.7135C114.065 61.7135 113.015 61.4112 112.11 60.8807C113.945 59.8144 115.183 57.8164 115.183 55.5353V6.17822C115.183 3.89712 113.945 1.89909 112.11 0.832741C113.015 0.302316 114.065 0 115.183 0C118.574 0 121.33 2.77031 121.33 6.17822Z" fill="#5965E0"/>
<path d="M48.3027 8.40356C45.3416 8.40356 42.9414 10.816 42.9414 13.7922V25.6696C42.9414 28.6457 45.3416 31.0582 48.3027 31.0582C51.2638 31.0582 53.664 28.6457 53.664 25.6696V13.7922C53.664 10.8163 51.2635 8.40356 48.3027 8.40356Z" fill="#FFD3C0"/>
<path d="M59.0249 8.40356C56.0638 8.40356 53.6636 10.816 53.6636 13.7922V25.6696C53.6636 28.6457 56.0638 31.0582 59.0249 31.0582C61.9859 31.0582 64.3862 28.6457 64.3862 25.6696V13.7922C64.3862 10.8163 61.9859 8.40356 59.0249 8.40356Z" fill="#FFB9A1"/>
<path d="M69.7475 8.40356C66.7865 8.40356 64.3862 10.816 64.3862 13.7922V25.6696C64.3862 28.6457 66.7865 31.0582 69.7475 31.0582C72.7086 31.0582 75.1088 28.6457 75.1088 25.6696V13.7922C75.1088 10.8163 72.7086 8.40356 69.7475 8.40356Z" fill="#FFD3C0"/>
<path d="M80.4707 8.40356C77.5096 8.40356 75.1094 10.816 75.1094 13.7922V25.6696C75.1094 28.6457 77.5096 31.0582 80.4707 31.0582C83.4317 31.0582 85.832 28.6457 85.832 25.6696V13.7922C85.8317 10.8163 83.4315 8.40356 80.4707 8.40356Z" fill="#FFB9A1"/>
<path d="M97.6502 111.307C97.2592 111.747 96.7014 112 96.1163 112H43.8842C43.299 112 42.7412 111.747 42.3502 111.307C41.9619 110.868 41.7787 110.282 41.8471 109.697L42.4185 104.854L44.5842 86.4654C44.7045 85.4293 45.5795 84.646 46.6213 84.646H93.3791C94.4209 84.646 95.2959 85.4293 95.4163 86.4654L98.1534 109.697C98.2217 110.282 98.0385 110.868 97.6502 111.307Z" fill="#EEF6FF"/>
<path d="M97.6502 111.307C97.2592 111.747 96.7014 112 96.1163 112H43.8842C43.299 112 42.7412 111.747 42.3502 111.307C41.9619 110.868 41.7787 110.282 41.8471 109.697L42.4185 104.854H87.9213C88.5065 104.854 89.0643 104.602 89.4526 104.162C89.8436 103.722 90.0241 103.137 89.9557 102.551L88.1483 86.4654C88.0252 85.4293 87.1502 84.646 86.1112 84.646H93.3791C94.4209 84.646 95.2959 85.4293 95.4163 86.4654L98.1534 109.697C98.2217 110.282 98.0385 110.868 97.6502 111.307Z" fill="#DAE6EF"/>
</svg>
