<svg width="58.56" height="80" viewBox="0 0 32 44" fill="none" xmlns="http://www.w3.org/2000/svg">
<path d="M23.6743 18.3223V31.9415H8.27269V18.3223H2.11206L15.9735 1.66138L29.8349 18.3223H23.6743Z" fill="#4CD62B"/>
<path d="M30.4017 19.8461C29.9378 19.8461 29.4787 19.6551 29.1619 19.2851L15.9995 3.91267L2.83859 19.2851C2.27709 19.9409 1.27247 20.0341 0.587786 19.5022C-0.096893 18.9657 -0.197673 18.0042 0.360629 17.3516L14.7597 0.533077C15.3692 -0.177692 16.6282 -0.177692 17.2376 0.533077L31.6383 17.3516C32.1982 18.0042 32.0958 18.9672 31.4111 19.5022C31.1152 19.733 30.7585 19.8461 30.4017 19.8461Z" fill="#4CD62B"/>
<path d="M8.0006 33.6031C7.11595 33.6031 6.40088 32.9198 6.40088 32.0745V18.3177C6.40088 17.4724 7.11595 16.7892 8.0006 16.7892C8.88524 16.7892 9.60031 17.4724 9.60031 18.3177V32.0745C9.60031 32.9198 8.88524 33.6031 8.0006 33.6031Z" fill="#4CD62B"/>
<path d="M23.9978 33.603H8.0006C7.11595 33.603 6.40088 32.9197 6.40088 32.0744C6.40088 31.2292 7.11595 30.5459 8.0006 30.5459H23.9978C24.8824 30.5459 25.5975 31.2292 25.5975 32.0744C25.5975 32.9197 24.8824 33.603 23.9978 33.603Z" fill="#4CD62B"/>
<path d="M23.9982 33.6031C23.1135 33.6031 22.3984 32.9198 22.3984 32.0745V18.3177C22.3984 17.4724 23.1135 16.7892 23.9982 16.7892C24.8828 16.7892 25.5979 17.4724 25.5979 18.3177V32.0745C25.5979 32.9198 24.8828 33.6031 23.9982 33.6031Z" fill="#4CD62B"/>
<path d="M8.00117 19.8463H1.60069C0.716051 19.8463 0.000976562 19.163 0.000976562 18.3177C0.000976562 17.4724 0.716051 16.7892 1.60069 16.7892H8.00117C8.88581 16.7892 9.60088 17.4724 9.60088 18.3177C9.60088 19.163 8.88581 19.8463 8.00117 19.8463Z" fill="#4CD62B"/>
<path d="M30.4002 19.8463H23.9982C23.1135 19.8463 22.3984 19.163 22.3984 18.3177C22.3984 17.4724 23.1135 16.7892 23.9982 16.7892H30.4002C31.2849 16.7892 31.9999 17.4724 31.9999 18.3177C31.9999 19.163 31.2849 19.8463 30.4002 19.8463Z" fill="#4CD62B"/>
<path d="M19.0541 21.4199H12.8934C12.0417 21.4199 11.3533 20.721 11.3533 19.8563C11.3533 18.9916 12.0417 18.2926 12.8934 18.2926H19.0541C19.9058 18.2926 20.5942 18.9916 20.5942 19.8563C20.5942 20.721 19.9058 21.4199 19.0541 21.4199Z" fill="#3FB023"/>
<path d="M15.9735 24.5458C15.1218 24.5458 14.4333 23.8468 14.4333 22.9821V16.7306C14.4333 15.8659 15.1218 15.167 15.9735 15.167C16.8252 15.167 17.5137 15.8659 17.5137 16.7306V22.9821C17.5137 23.8468 16.8252 24.5458 15.9735 24.5458Z" fill="#3FB023"/>
<rect x="6.38965" y="35.603" width="19.2212" height="3.05481" rx="1.52741" fill="#4DD82B"/>
<rect x="6.38965" y="40.6578" width="19.2212" height="3.05481" rx="1.52741" fill="#4DD82B"/>
</svg>
